<svg width="134" height="25" viewBox="0 0 134 25" fill="none" xmlns="http://www.w3.org/2000/svg">
<path d="M5.50923 2.18182V24H0.896307V2.18182H5.50923ZM13.7576 14.5398V24H9.21928V7.63636H13.5446V10.5234H13.7363C14.0985 9.57173 14.7058 8.81889 15.5581 8.26491C16.4103 7.70384 17.4437 7.4233 18.6582 7.4233C19.7946 7.4233 20.7853 7.67187 21.6305 8.16903C22.4757 8.66619 23.1326 9.37642 23.6014 10.2997C24.0701 11.2159 24.3045 12.3097 24.3045 13.581V24H19.7662V14.3906C19.7733 13.3892 19.5176 12.608 18.9991 12.0469C18.4806 11.4787 17.7669 11.1946 16.8578 11.1946C16.247 11.1946 15.7072 11.326 15.2385 11.5888C14.7768 11.8516 14.4146 12.2351 14.1518 12.7393C13.8961 13.2365 13.7647 13.8366 13.7576 14.5398ZM35.2749 24.3196C33.5987 24.3196 32.157 23.9645 30.9496 23.2543C29.7493 22.5369 28.826 21.5426 28.1797 20.2713C27.5405 19 27.2209 17.5369 27.2209 15.8821C27.2209 14.206 27.544 12.7358 28.1903 11.4716C28.8438 10.2003 29.7706 9.20952 30.9709 8.49929C32.1712 7.78196 33.5987 7.4233 35.2536 7.4233C36.6811 7.4233 37.9311 7.68253 39.0036 8.20099C40.076 8.71946 40.9247 9.44744 41.5497 10.3849C42.1747 11.3224 42.5192 12.4233 42.5831 13.6875H38.3004C38.1797 12.8707 37.8601 12.2138 37.3416 11.7166C36.8303 11.2124 36.1591 10.9602 35.3281 10.9602C34.625 10.9602 34.0107 11.152 33.4851 11.5355C32.9666 11.9119 32.5618 12.4624 32.2706 13.1868C31.9794 13.9112 31.8338 14.7884 31.8338 15.8182C31.8338 16.8622 31.9759 17.75 32.2599 18.4815C32.5511 19.2131 32.9595 19.7706 33.4851 20.1541C34.0107 20.5376 34.625 20.7294 35.3281 20.7294C35.8466 20.7294 36.3118 20.6229 36.7237 20.4098C37.1428 20.1967 37.4872 19.8878 37.7571 19.483C38.0341 19.071 38.2152 18.5774 38.3004 18.0021H42.5831C42.5121 19.2521 42.1712 20.353 41.5604 21.3047C40.9567 22.2493 40.1222 22.9879 39.0568 23.5206C37.9915 24.0533 36.7308 24.3196 35.2749 24.3196ZM52.9462 24.3196C51.263 24.3196 49.8141 23.9787 48.5996 23.2969C47.3922 22.608 46.4618 21.6349 45.8084 20.3778C45.155 19.1136 44.8283 17.6186 44.8283 15.8928C44.8283 14.2095 45.155 12.7322 45.8084 11.4609C46.4618 10.1896 47.3816 9.19886 48.5676 8.48864C49.7608 7.77841 51.16 7.4233 52.7651 7.4233C53.8446 7.4233 54.8496 7.5973 55.78 7.94531C56.7175 8.28622 57.5343 8.80114 58.2303 9.49006C58.9334 10.179 59.4803 11.0455 59.8709 12.0895C60.2615 13.1264 60.4569 14.3409 60.4569 15.733V16.9794H46.6394V14.1669H56.1848C56.1848 13.5135 56.0428 12.9347 55.7587 12.4304C55.4746 11.9261 55.0804 11.532 54.5762 11.2479C54.079 10.9567 53.5002 10.8111 52.8397 10.8111C52.1507 10.8111 51.54 10.9709 51.0073 11.2905C50.4817 11.603 50.0698 12.0256 49.7715 12.5582C49.4732 13.0838 49.3205 13.6697 49.3134 14.3161V16.9901C49.3134 17.7997 49.4625 18.4993 49.7608 19.0888C50.0662 19.6783 50.4959 20.1328 51.0499 20.4524C51.6039 20.772 52.2608 20.9318 53.0208 20.9318C53.525 20.9318 53.9867 20.8608 54.4057 20.7188C54.8248 20.5767 55.1834 20.3636 55.4817 20.0795C55.78 19.7955 56.0073 19.4474 56.1635 19.0355L60.361 19.3125C60.1479 20.321 59.7111 21.2017 59.0506 21.9545C58.3972 22.7003 57.552 23.2827 56.5151 23.7017C55.4853 24.1136 54.2956 24.3196 52.9462 24.3196ZM67.9569 14.5398V24H63.4185V7.63636H67.7438V10.5234H67.9355C68.2978 9.57173 68.905 8.81889 69.7573 8.26491C70.6096 7.70384 71.6429 7.4233 72.8574 7.4233C73.9938 7.4233 74.9846 7.67187 75.8297 8.16903C76.6749 8.66619 77.3319 9.37642 77.8006 10.2997C78.2694 11.2159 78.5037 12.3097 78.5037 13.581V24H73.9654V14.3906C73.9725 13.3892 73.7168 12.608 73.1983 12.0469C72.6799 11.4787 71.9661 11.1946 71.057 11.1946C70.4462 11.1946 69.9064 11.326 69.4377 11.5888C68.976 11.8516 68.6138 12.2351 68.351 12.7393C68.0953 13.2365 67.964 13.8366 67.9569 14.5398ZM90.7844 7.63636V11.0455H80.93V7.63636H90.7844ZM83.1673 3.71591H87.7056V18.9716C87.7056 19.3906 87.7695 19.7173 87.8974 19.9517C88.0252 20.179 88.2028 20.3388 88.43 20.4311C88.6644 20.5234 88.9343 20.5696 89.2397 20.5696C89.4528 20.5696 89.6658 20.5518 89.8789 20.5163C90.092 20.4737 90.2553 20.4418 90.369 20.4205L91.0827 23.7976C90.8555 23.8686 90.5359 23.9503 90.1239 24.0426C89.712 24.142 89.2113 24.2024 88.6218 24.2237C87.5281 24.2663 86.5692 24.1207 85.7454 23.7869C84.9286 23.4531 84.293 22.9347 83.8384 22.2315C83.3839 21.5284 83.1602 20.6406 83.1673 19.5682V3.71591ZM93.7408 24V7.63636H98.2791V24H93.7408ZM96.0206 5.52699C95.3459 5.52699 94.767 5.30327 94.2841 4.85582C93.8082 4.40128 93.5703 3.85795 93.5703 3.22585C93.5703 2.60085 93.8082 2.06463 94.2841 1.61719C94.767 1.16264 95.3459 0.935368 96.0206 0.935368C96.6953 0.935368 97.2706 1.16264 97.7464 1.61719C98.2294 2.06463 98.4709 2.60085 98.4709 3.22585C98.4709 3.85795 98.2294 4.40128 97.7464 4.85582C97.2706 5.30327 96.6953 5.52699 96.0206 5.52699ZM117.17 7.63636L111.449 24H106.336L100.615 7.63636H105.409L108.807 19.3445H108.978L112.366 7.63636H117.17ZM126.423 24.3196C124.74 24.3196 123.291 23.9787 122.076 23.2969C120.869 22.608 119.938 21.6349 119.285 20.3778C118.632 19.1136 118.305 17.6186 118.305 15.8928C118.305 14.2095 118.632 12.7322 119.285 11.4609C119.938 10.1896 120.858 9.19886 122.044 8.48864C123.237 7.77841 124.637 7.4233 126.242 7.4233C127.321 7.4233 128.326 7.5973 129.257 7.94531C130.194 8.28622 131.011 8.80114 131.707 9.49006C132.41 10.179 132.957 11.0455 133.347 12.0895C133.738 13.1264 133.933 14.3409 133.933 15.733V16.9794H120.116V14.1669H129.661C129.661 13.5135 129.519 12.9347 129.235 12.4304C128.951 11.9261 128.557 11.532 128.053 11.2479C127.556 10.9567 126.977 10.8111 126.316 10.8111C125.627 10.8111 125.017 10.9709 124.484 11.2905C123.958 11.603 123.546 12.0256 123.248 12.5582C122.95 13.0838 122.797 13.6697 122.79 14.3161V16.9901C122.79 17.7997 122.939 18.4993 123.237 19.0888C123.543 19.6783 123.972 20.1328 124.526 20.4524C125.08 20.772 125.737 20.9318 126.497 20.9318C127.002 20.9318 127.463 20.8608 127.882 20.7188C128.301 20.5767 128.66 20.3636 128.958 20.0795C129.257 19.7955 129.484 19.4474 129.64 19.0355L133.838 19.3125C133.624 20.321 133.188 21.2017 132.527 21.9545C131.874 22.7003 131.029 23.2827 129.992 23.7017C128.962 24.1136 127.772 24.3196 126.423 24.3196Z" fill="white"/>
</svg>
